{"title":"Devil's Gate (2017)  HDRip H264 MPEG-4 AAC Spy1984","magnet":"magnet:?xt=urn:btih:371c0ecefd8b1f2c04ff4a7e3f7ab475241427d7&dn=Devil%27s+Gate+%282017%29++HDRip+H264+MPEG-4+AAC+Spy1984&tr=udp%3A%2F%2Ftracker.leechers-paradise.org%3A6969&tr=udp%3A%2F%2Fzer0day.ch%3A1337&tr=udp%3A%2F%2Fopen.demonii.com%3A1337&tr=udp%3A%2F%2Ftracker.coppersurfer.tk%3A6969&tr=udp%3A%2F%2Fexodus.desync.com%3A6969","uploader":"spy1984","categoryP":"video","categoryS":"movies","size":"402796020","seeders":"1","leechers":"92","description":"An FBI agent aims to solve a missing persons case in a rural area, but when she discovers that mysterious creatures may be responsible for the crime, she must tap into every reserve of her courage and smarts to survive.\r\n\r\n\r\n <a href=\"\nhttp://www.4kw.in/4631.html\" rel=\"nofollow\" target=\"_NEW\">\nhttp://www.4kw.in/4631.html</a>\r\n <a href=\"\nhttp://www.4kw.in/4632.html\" rel=\"nofollow\" target=\"_NEW\">\nhttp://www.4kw.in/4632.html</a>\r\n <a href=\"\nhttp://www.4kw.in/4633.html\" rel=\"nofollow\" target=\"_NEW\">\nhttp://www.4kw.in/4633.html</a>\r\n <a href=\"\nhttp://www.4kw.in/4634.html\" rel=\"nofollow\" target=\"_NEW\">\nhttp://www.4kw.in/4634.html</a>\r\n\r\n\r\nGeneral\r\n\r\n\r\nFormat                                   : MPEG-4\r\nFormat profile                           : Base Media\r\nCodec ID                                 : isom (isom/iso2/avc1/mp41)\r\nFile size                                : 384 MiB\r\nDuration                                 : 1 h 34 min\r\nOverall bit rate                         : 570 kb/s\r\nWriting application                      : Lavf57.83.100\r\n\r\nVideo\r\n\r\n\r\nID                                       : 1\r\nFormat                                   : AVC\r\nFormat/Info                              : Advanced Video Codec\r\nFormat profile                           : <a href=\"/cdn-cgi/l/email-protection\" class=\"__cf_email__\" data-cfemail=\"efa7868887afa3dcc1de\">[email&#xA0;protected]</a>\r\nFormat settings                          : CABAC / 5 Ref Frames\r\nFormat settings, CABAC                   : Yes\r\nFormat settings, RefFrames               : 5 frames\r\nCodec ID                                 : avc1\r\nCodec ID/Info                            : Advanced Video Coding\r\nDuration                                 : 1 h 34 min\r\nBit rate                                 : 512 kb/s\r\nWidth                                    : 720 pixels\r\nHeight                                   : 304 pixels\r\nDisplay aspect ratio                     : 2.35:1\r\nFrame rate mode                          : Constant\r\nFrame rate                               : 23.976 (24000/1001) FPS\r\nColor space                              : YUV\r\nChroma subsampling                       : 4:2:0\r\nBit depth                                : 8 bits\r\nScan type                                : Progressive\r\nBits/(Pixel*Frame)                       : 0.098\r\nStream size                              : 338 MiB (88%)\r\n\r\n\r\nAudio\r\n\r\n\r\nID                                       : 2\r\nFormat                                   : AAC\r\nFormat/Info                              : Advanced Audio Codec\r\nFormat profile                           : LC\r\nCodec ID                                 : mp4a-40-2\r\nDuration                                 : 1 h 34 min\r\nDuration_LastFrame                       : -11 ms\r\nBit rate mode                            : Constant\r\nBit rate                                 : 64.7 kb/s\r\nChannel(s)                               : 2 channels\r\nChannel positions                        : Front: L R\r\nSampling rate                            : 48.0 kHz\r\nFrame rate                               : 46.875 FPS (1024 SPF)\r\nCompression mode                         : Lossy\r\nStream size                              : 43.6 MiB (11%)\r\nDefault                                  : Yes\r\nAlternate group                          : 1","last_updated":"2018-01-06T12:02:42.506Z","parsed":{"xt":"urn:btih:371c0ecefd8b1f2c04ff4a7e3f7ab475241427d7","dn":"Devil's Gate (2017)  HDRip H264 MPEG-4 AAC Spy1984","tr":["udp://exodus.desync.com:6969","udp://open.demonii.com:1337","udp://tracker.coppersurfer.tk:6969","udp://tracker.leechers-paradise.org:6969","udp://zer0day.ch:1337"],"infoHash":"371c0ecefd8b1f2c04ff4a7e3f7ab475241427d7","infoHashBuffer":{"type":"Buffer","data":[55,28,14,206,253,139,31,44,4,255,74,126,63,122,180,117,36,20,39,215]},"name":"Devil's Gate (2017)  HDRip H264 MPEG-4 AAC Spy1984","announce":["udp://exodus.desync.com:6969","udp://open.demonii.com:1337","udp://tracker.coppersurfer.tk:6969","udp://tracker.leechers-paradise.org:6969","udp://zer0day.ch:1337"],"urlList":[]}}